<svg version="1.2" xmlns="http://www.w3.org/2000/svg" viewBox="0 0 30 30" width="30" height="30">
	<title>scroll-message-svg</title>
	<style>
		.s0 { fill: #ffffff } 
	</style>
	<path id="Layer" fill-rule="evenodd" class="s0" d="m29.2 28c0 0.7-0.7 1.4-1.5 1.4-0.5 0-0.9-0.2-1.2-0.6h-0.6l-1.1 0.4v-0.4h-19.6v0.4l-1.1-0.4h-0.6c-0.3 0.4-0.7 0.6-1.2 0.6-0.8 0-1.5-0.7-1.5-1.4 0-0.8 0.7-1.5 1.5-1.5 0.5 0 0.9 0.3 1.2 0.6h0.6l1.1-0.4v0.4h19.6v-0.4l1.1 0.4h0.6c0.3-0.3 0.7-0.6 1.2-0.6 0.8 0 1.5 0.7 1.5 1.5zm-28.4-26c0-0.7 0.7-1.4 1.5-1.4 0.5 0 0.9 0.2 1.2 0.6h0.6l1.1-0.4v0.4h19.6v-0.4l1.1 0.4h0.6c0.3-0.4 0.7-0.6 1.2-0.6 0.8 0 1.5 0.7 1.5 1.4 0 0.8-0.7 1.5-1.5 1.5-0.5 0-0.9-0.3-1.2-0.6h-0.6l-1.1 0.4v-0.4h-19.6v0.4l-1.1-0.4h-0.6c-0.3 0.3-0.7 0.6-1.2 0.6-0.8 0-1.5-0.7-1.5-1.5zm23 24.2h-17.6v-22.4h17.6zm-5.9-4.9c0-0.2-0.1-0.3-0.3-0.3h-5.2c-0.2 0-0.3 0.1-0.3 0.3 0 0.2 0.1 0.3 0.3 0.3h5.2c0.2 0 0.3-0.1 0.3-0.3zm0-2.6c0-0.2-0.1-0.3-0.3-0.3h-2.8c-0.2 0-0.3 0.1-0.3 0.3 0 0.2 0.1 0.3 0.3 0.3h2.8c0.2 0 0.3-0.1 0.3-0.3zm-3.4-5.4c0 0.2 0.1 0.3 0.3 0.3h2.8c0.2 0 0.3-0.1 0.3-0.3 0-0.1-0.1-0.3-0.3-0.3h-2.8c-0.2 0-0.3 0.2-0.3 0.3zm0.7-2.3c0.2 0 0.3-0.1 0.3-0.3 0-0.2-0.1-0.3-0.3-0.3h-2.8c-0.2 0-0.3 0.1-0.3 0.3 0 0.2 0.1 0.3 0.3 0.3zm-2.3 4.7c-0.2 0-0.3 0.1-0.3 0.3 0 0.2 0.1 0.3 0.3 0.3h2.9c0.1 0 0.3-0.1 0.3-0.3 0-0.2-0.2-0.3-0.3-0.3zm7.6 5.6c0-0.2-0.1-0.3-0.3-0.3h-1.6c-0.2 0-0.3 0.1-0.3 0.3 0 0.2 0.1 0.3 0.3 0.3h1.6c0.2 0 0.3-0.1 0.3-0.3zm0-2.6c0-0.2-0.1-0.3-0.3-0.3h-1.6c-0.2 0-0.3 0.1-0.3 0.3 0 0.2 0.1 0.3 0.3 0.3h1.6c0.2 0 0.3-0.1 0.3-0.3zm0-2.7c0-0.2-0.1-0.3-0.3-0.3h-3.4c-0.2 0-0.3 0.1-0.3 0.3 0 0.2 0.1 0.3 0.3 0.3h3.4c0.2 0 0.3-0.1 0.3-0.3zm0-2.7c0-0.1-0.1-0.3-0.3-0.3h-1.6c-0.2 0-0.3 0.2-0.3 0.3 0 0.2 0.1 0.3 0.3 0.3h1.6c0.2 0 0.3-0.1 0.3-0.3zm-0.3-2.9h-4c-0.2 0-0.3 0.1-0.3 0.3 0 0.2 0.1 0.3 0.3 0.3h4c0.2 0 0.3-0.1 0.3-0.3 0-0.2-0.1-0.3-0.3-0.3zm-9.4-2.4c0 0.2 0.1 0.3 0.3 0.3h7.6c0.2 0 0.3-0.1 0.3-0.3 0-0.2-0.1-0.3-0.3-0.3h-7.6c-0.2 0-0.3 0.1-0.3 0.3zm-1.6 2.7c0 0.2 0.1 0.3 0.3 0.3h1.7c0.2 0 0.3-0.1 0.3-0.3 0-0.2-0.1-0.3-0.3-0.3h-1.7c-0.1 0-0.3 0.1-0.3 0.3zm0 2.6c0 0.2 0.1 0.3 0.3 0.3h4.1c0.2 0 0.3-0.1 0.3-0.3 0-0.1-0.1-0.3-0.3-0.3h-4.1c-0.1 0-0.3 0.2-0.3 0.3zm0 2.7c0 0.2 0.1 0.3 0.3 0.3h2.3c0.2 0 0.3-0.1 0.3-0.3 0-0.2-0.1-0.3-0.3-0.3h-2.3c-0.1 0-0.3 0.2-0.3 0.3zm0 2.7c0 0.2 0.1 0.3 0.3 0.3h4.1c0.2 0 0.3-0.1 0.3-0.3 0-0.2-0.1-0.3-0.3-0.3h-4.1c-0.1 0-0.3 0.1-0.3 0.3zm0 2.6c0 0.2 0.1 0.3 0.3 0.3h1.7c0.2 0 0.3-0.1 0.3-0.3 0-0.2-0.1-0.3-0.3-0.3h-1.7c-0.1 0-0.3 0.2-0.3 0.3z"/>
</svg>